<?xml version="1.0" standalone="no"?>
<!DOCTYPE svg PUBLIC "-//W3C//DTD SVG 20010904//EN"
 "http://www.w3.org/TR/2001/REC-SVG-20010904/DTD/svg10.dtd">
<svg version="1.0" xmlns="http://www.w3.org/2000/svg"
 width="1184.000000pt" height="1184.000000pt" viewBox="0 0 1184.000000 1184.000000"
 preserveAspectRatio="xMidYMid meet">
<metadata>
Created by potrace 1.11, written by Peter Selinger 2001-2013
</metadata>
<g transform="translate(0.000000,1184.000000) scale(0.100000,-0.100000)"
fill="#000000" stroke="none">
<path d="M5914 9691 c-66 -36 -133 -73 -149 -81 -17 -8 -32 -17 -35 -20 -3 -3
-23 -15 -45 -27 -22 -11 -56 -30 -75 -42 -19 -11 -42 -24 -50 -28 -8 -4 -44
-23 -80 -44 -91 -51 -169 -94 -210 -115 -19 -11 -37 -21 -40 -24 -3 -3 -16
-11 -30 -17 -14 -7 -52 -28 -85 -47 -33 -19 -76 -43 -95 -53 -19 -9 -41 -23
-48 -30 -8 -7 -18 -11 -23 -8 -5 4 -9 1 -9 -4 0 -6 -5 -11 -11 -11 -6 0 -24
-9 -40 -21 -16 -11 -29 -17 -29 -13 0 4 -8 0 -17 -8 -10 -8 -54 -35 -98 -58
-44 -24 -118 -65 -164 -92 -46 -26 -88 -48 -92 -48 -5 0 -9 -5 -9 -11 0 -5 -4
-8 -9 -4 -5 3 -16 -1 -24 -9 -8 -8 -17 -12 -21 -9 -3 4 -6 2 -6 -4 0 -6 -12
-16 -27 -22 -16 -6 -46 -21 -68 -34 -101 -58 -143 -82 -185 -105 -92 -50 -105
-57 -112 -67 -4 -5 -8 -6 -8 -2 0 5 -12 0 -27 -11 -16 -10 -57 -34 -93 -54
-113 -62 -151 -83 -318 -176 -89 -51 -167 -92 -172 -92 -6 0 -10 -4 -10 -10 0
-5 -6 -10 -14 -10 -7 0 -24 -8 -37 -19 -13 -10 -35 -22 -49 -26 -14 -4 -27
-11 -30 -15 -3 -4 -36 -24 -75 -45 -38 -20 -76 -42 -82 -47 -7 -6 -13 -7 -13
-2 0 5 -4 4 -8 -2 -7 -11 -89 -58 -182 -106 -25 -13 -46 -26 -48 -30 -2 -5 -7
-8 -12 -8 -7 0 -182 -95 -220 -120 -14 -9 -54 -31 -150 -81 -25 -13 -51 -29
-58 -36 -6 -6 -22 -15 -35 -19 -12 -4 -24 -9 -27 -13 -3 -3 -31 -19 -62 -36
-55 -29 -63 -37 -58 -60 1 -5 1 -35 0 -65 -1 -30 -1 -61 -1 -67 1 -21 2 -268
2 -310 0 -10 0 -83 0 -163 0 -80 0 -151 0 -157 -2 -32 -2 -48 -1 -118 1 -41
-2 -80 -5 -85 -3 -6 -3 -10 2 -10 4 0 7 -22 6 -49 -2 -49 -2 -49 52 -85 30
-20 59 -36 65 -36 5 0 10 -4 10 -10 0 -5 7 -10 15 -10 8 0 15 -4 15 -10 0 -5
3 -9 8 -8 4 1 47 -22 95 -52 154 -96 162 -101 180 -107 9 -3 17 -9 17 -14 0
-5 7 -9 15 -9 8 0 15 -4 15 -10 0 -5 5 -10 10 -10 6 0 76 -40 156 -90 80 -49
149 -90 153 -90 3 0 23 -14 44 -30 l39 -29 -29 -15 c-15 -8 -48 -26 -73 -40
-25 -14 -65 -36 -90 -48 -25 -13 -47 -26 -50 -29 -3 -4 -25 -17 -50 -29 -25
-12 -48 -27 -51 -32 -3 -5 -10 -10 -15 -10 -5 0 -47 -21 -94 -47 -47 -27 -116
-65 -155 -86 -38 -22 -111 -62 -161 -90 -49 -28 -98 -54 -107 -58 -16 -6 -22
-74 -16 -202 0 -22 1 -47 1 -55 -1 -8 -1 -80 -1 -160 0 -80 0 -151 0 -157 -1
-7 -1 -19 -2 -25 0 -7 0 -40 0 -73 0 -63 0 -68 0 -150 0 -67 0 -56 1 -182 l2
-111 50 -31 c27 -17 54 -31 59 -31 5 0 9 -4 9 -10 0 -5 4 -10 9 -10 6 0 53
-27 105 -60 53 -33 100 -60 106 -60 5 0 10 -3 10 -7 0 -5 10 -13 23 -19 12 -6
59 -34 105 -62 46 -29 88 -52 93 -52 5 0 9 -4 9 -9 0 -5 8 -11 18 -15 9 -3 57
-30 105 -61 48 -30 92 -55 98 -55 5 0 9 -4 9 -10 0 -5 4 -10 9 -10 5 0 45 -22
88 -50 43 -27 97 -59 121 -71 23 -12 42 -25 42 -30 0 -5 4 -9 9 -9 12 0 215
-122 219 -132 2 -4 8 -8 13 -8 8 0 110 -61 199 -118 14 -9 27 -17 30 -17 3 0
30 -16 60 -36 30 -19 71 -44 90 -55 19 -10 37 -21 40 -24 12 -12 112 -70 121
-70 5 0 9 -4 9 -10 0 -5 5 -10 11 -10 6 0 30 -13 54 -30 24 -16 46 -30 49 -30
3 0 32 -17 63 -37 32 -21 67 -43 78 -49 12 -6 59 -34 105 -63 47 -29 94 -58
105 -64 11 -7 39 -24 62 -39 23 -16 44 -28 47 -28 4 0 258 -154 296 -180 8 -6
23 -13 33 -16 9 -4 17 -10 17 -15 0 -5 6 -9 14 -9 7 0 19 -7 26 -15 7 -8 16
-13 20 -10 5 3 10 1 12 -3 1 -5 58 -42 126 -83 67 -41 152 -93 190 -116 37
-23 77 -47 89 -52 11 -5 24 -15 28 -21 3 -5 11 -8 16 -5 5 4 9 2 9 -3 0 -5 14
-15 30 -22 17 -7 30 -16 30 -21 0 -5 4 -9 10 -9 5 0 76 -41 157 -92 81 -50
163 -98 181 -107 17 -8 32 -19 32 -24 0 -4 5 -5 10 -2 6 3 10 2 10 -3 0 -19
39 -20 56 -1 9 10 23 19 31 19 7 0 13 5 13 12 0 6 3 9 6 5 4 -3 12 -1 19 6 7
7 25 21 41 32 15 11 33 26 41 33 7 7 13 10 13 5 0 -4 4 -3 8 2 4 6 59 46 122
90 63 43 121 85 128 92 7 7 19 13 27 13 7 0 15 4 17 8 2 5 82 63 178 130 96
67 180 125 185 130 6 4 39 28 75 52 36 24 71 49 78 56 6 7 21 16 32 19 11 3
20 11 20 16 0 5 6 9 13 9 8 0 24 11 37 25 13 14 29 25 36 25 7 0 14 3 16 8 2
4 30 25 63 47 33 22 65 45 72 52 7 6 29 21 50 34 21 13 40 26 43 29 3 3 67 48
144 100 76 52 144 100 150 107 11 9 68 48 144 98 9 6 23 16 31 22 9 7 68 49
131 93 63 43 122 84 130 90 8 6 53 37 100 70 47 32 91 64 98 70 6 6 12 9 12 6
0 -3 12 6 26 19 15 14 33 25 40 25 7 0 14 4 16 8 2 4 32 28 68 52 36 25 67 48
70 51 3 3 61 43 130 90 69 46 127 86 130 89 17 17 80 60 88 60 6 0 12 4 14 8
2 4 46 37 98 73 52 36 161 113 243 170 81 57 156 108 167 114 11 5 20 13 20
17 0 5 7 8 15 8 8 0 15 4 15 9 0 6 18 20 40 32 l40 23 0 537 c0 417 -3 539
-12 546 -7 6 -42 26 -78 44 -36 19 -67 36 -70 39 -5 5 -71 41 -145 79 -16 9
-31 19 -33 24 -2 4 -8 7 -12 7 -5 0 -35 15 -67 34 -91 52 -155 88 -195 108
-20 10 -40 22 -43 28 -4 6 -11 8 -16 5 -5 -4 -9 -1 -9 4 0 6 -6 11 -14 11 -7
0 -19 7 -26 15 -7 8 -17 12 -24 8 -6 -3 -2 3 8 15 11 12 25 22 33 22 7 0 13 5
13 10 0 6 7 10 15 10 8 0 15 5 15 10 0 6 6 10 13 10 8 0 22 9 32 20 10 11 22
20 26 20 7 0 225 140 437 281 41 27 78 49 83 49 5 0 9 3 9 8 0 4 14 15 30 24
l30 17 0 534 0 535 -32 24 c-18 13 -44 29 -58 36 -14 7 -38 21 -55 32 -16 11
-45 27 -62 37 -18 9 -33 20 -33 23 0 3 -16 12 -35 20 -19 8 -35 17 -35 22 0 4
-7 8 -15 8 -8 0 -15 4 -15 10 0 5 -3 9 -7 8 -5 -1 -33 13 -63 33 -30 19 -71
44 -90 55 -19 10 -36 22 -38 27 -2 4 -8 7 -13 7 -5 0 -33 15 -62 34 -29 19
-69 43 -88 54 -57 32 -294 176 -299 182 -3 3 -16 11 -30 18 -14 7 -38 21 -55
32 -16 10 -41 25 -55 33 -47 26 -75 42 -80 47 -12 12 -129 80 -138 80 -6 0
-12 4 -14 8 -2 7 -239 152 -347 214 -19 11 -59 35 -88 54 -29 19 -55 34 -57
34 -3 0 -31 17 -63 38 -32 21 -65 42 -73 46 -18 8 -35 18 -131 79 -42 26 -81
47 -87 47 -5 0 -12 4 -14 8 -1 5 -29 24 -61 43 -69 40 -58 33 -215 129 -67 41
-135 81 -150 89 -15 8 -29 17 -32 20 -7 8 -36 26 -85 52 -22 12 -59 35 -82 50
-23 16 -44 29 -48 29 -3 0 -33 18 -66 40 -33 22 -62 40 -63 40 -2 0 -43 24
-92 54 -226 137 -400 242 -414 247 -10 4 -62 -19 -136 -60z m136 -1011 c0 -5
5 -10 10 -10 6 0 41 -20 78 -45 37 -25 72 -45 79 -45 7 0 13 -5 13 -10 0 -6
11 -15 25 -20 14 -5 31 -14 38 -20 6 -6 131 -85 277 -175 146 -91 272 -169
280 -174 8 -6 51 -33 95 -61 44 -28 89 -56 99 -63 26 -16 177 -109 201 -124
11 -6 65 -40 120 -75 55 -35 104 -65 110 -67 5 -2 24 -14 40 -25 17 -12 39
-26 50 -33 11 -6 130 -81 264 -165 134 -84 248 -155 254 -157 6 -2 20 -12 31
-22 10 -10 23 -16 28 -13 4 3 8 1 8 -3 0 -5 16 -17 35 -27 19 -11 35 -24 35
-29 0 -6 3 -8 6 -4 4 3 27 -8 53 -26 25 -17 58 -39 72 -47 76 -43 318 -196
318 -200 0 -3 -21 -18 -47 -34 -26 -16 -69 -43 -97 -61 -136 -87 -166 -105
-174 -105 -5 0 -11 -4 -13 -8 -4 -10 -135 -92 -147 -92 -5 0 -11 -4 -13 -9 -1
-5 -17 -17 -34 -27 -18 -11 -58 -34 -90 -53 -33 -19 -61 -37 -64 -41 -25 -29
-100 -53 -100 -31 0 5 -8 11 -17 14 -10 3 -47 22 -83 43 -103 58 -173 96 -197
108 -13 6 -23 15 -23 19 0 5 -4 6 -9 3 -5 -3 -14 1 -21 9 -7 8 -16 15 -21 15
-4 0 -36 17 -71 37 -35 20 -64 35 -64 32 -1 -2 -10 3 -20 12 -11 9 -55 35 -99
59 -44 24 -96 52 -115 63 -19 11 -54 30 -77 43 -54 30 -110 61 -242 136 -58
32 -108 58 -112 58 -4 0 -9 3 -11 8 -1 4 -19 15 -38 24 -19 10 -60 31 -90 49
-30 17 -80 45 -110 62 -30 17 -68 38 -85 48 -16 10 -46 25 -65 34 -19 9 -37
19 -40 23 -5 6 -39 25 -170 94 -25 12 -46 26 -48 31 -8 17 -56 -3 -172 -73 -8
-5 -43 -24 -77 -42 -35 -18 -63 -36 -63 -40 0 -5 -9 -8 -19 -8 -11 0 -21 -3
-23 -7 -1 -5 -16 -15 -33 -24 -79 -41 -140 -75 -145 -80 -3 -3 -20 -12 -37
-20 -18 -8 -33 -17 -33 -21 0 -5 -4 -8 -10 -8 -5 0 -98 -49 -206 -110 -108
-60 -200 -110 -205 -110 -5 0 -9 -3 -9 -7 0 -5 -25 -19 -55 -33 -30 -14 -55
-28 -55 -32 0 -5 -4 -8 -10 -8 -13 0 -214 -112 -218 -122 -2 -4 -9 -8 -17 -8
-12 0 -118 -59 -142 -80 -7 -5 -19 -10 -26 -10 -8 0 -20 -7 -27 -15 -7 -8 -16
-15 -20 -15 -5 0 -37 -16 -72 -36 -264 -150 -238 -140 -284 -115 -42 23 -142
85 -160 98 -17 14 -47 32 -88 54 -21 11 -44 25 -50 30 -15 13 -237 149 -242
149 -3 0 -10 5 -17 10 -28 24 -153 100 -164 100 -7 0 -13 4 -13 8 0 5 -17 17
-37 28 -21 10 -48 26 -60 35 l-23 17 23 14 c12 9 42 25 66 38 25 12 51 29 59
36 7 8 19 14 25 14 7 0 28 11 47 23 19 13 64 40 100 59 93 51 143 79 243 137
49 28 93 51 98 51 5 0 9 5 9 10 0 6 3 9 8 8 4 -1 18 5 32 13 51 33 210 119
219 119 5 0 11 4 13 8 2 7 102 66 178 105 8 4 24 13 35 20 11 7 56 32 100 56
44 25 83 49 87 55 4 6 8 8 8 4 0 -3 26 9 57 28 31 19 62 34 69 34 7 0 14 4 16
8 2 5 34 26 73 48 38 21 79 44 90 51 11 6 40 21 65 34 25 12 47 25 50 29 4 5
248 143 430 243 30 17 57 33 60 37 3 4 16 11 29 15 14 4 29 12 35 17 21 17
126 77 126 71 0 -3 8 1 18 9 9 9 40 28 67 43 28 14 68 36 90 49 22 12 63 35
90 50 28 15 54 32 60 37 12 12 25 11 25 -1z m280 -2313 c19 -11 46 -27 60 -36
14 -9 37 -23 53 -31 15 -7 27 -17 27 -22 0 -5 5 -6 10 -3 6 3 10 1 10 -4 0 -6
3 -10 8 -9 4 2 32 -13 62 -32 30 -19 69 -41 85 -49 17 -8 32 -18 35 -21 3 -4
32 -21 65 -40 33 -18 71 -42 84 -52 13 -10 27 -15 32 -12 5 3 9 1 9 -5 0 -9
20 -21 87 -55 13 -6 23 -13 23 -16 0 -8 -124 -85 -132 -82 -5 1 -8 -2 -8 -6 0
-5 -19 -19 -42 -32 -44 -25 -105 -63 -123 -78 -5 -4 -30 -19 -55 -32 -25 -14
-49 -31 -53 -37 -4 -7 -12 -13 -17 -13 -5 0 -51 -27 -102 -60 -51 -33 -101
-63 -110 -66 -10 -4 -18 -10 -18 -15 0 -5 -4 -9 -9 -9 -5 0 -69 -38 -142 -84
l-133 -84 -31 24 c-18 13 -35 24 -39 24 -4 0 -41 23 -83 50 -42 28 -77 50 -79
50 -2 0 -105 63 -229 140 -124 77 -229 140 -234 140 -5 0 -11 4 -13 8 -3 8
-124 85 -168 107 -11 5 -20 13 -20 17 0 5 -6 8 -12 8 -14 1 -63 39 -57 44 2 1
103 58 224 126 121 68 232 132 248 142 15 11 27 16 27 13 0 -3 12 2 28 13 15
10 74 45 132 77 58 32 108 63 112 69 4 6 8 7 8 2 0 -5 6 -4 13 1 12 11 86 53
145 84 l33 17 127 -75 c70 -42 143 -85 162 -96z m-2170 -997 c14 -9 32 -20 40
-23 8 -4 55 -32 103 -62 48 -30 92 -55 98 -55 5 0 9 -4 9 -10 0 -5 4 -10 9
-10 5 0 32 -15 59 -32 52 -34 107 -65 120 -70 7 -2 21 -13 47 -35 7 -7 17 -13
20 -13 11 0 229 -134 233 -142 2 -5 7 -8 12 -8 5 0 109 -62 232 -137 123 -75
234 -143 248 -150 14 -8 45 -27 70 -43 25 -17 56 -35 70 -42 14 -7 27 -15 30
-18 5 -6 193 -120 245 -150 17 -9 56 -33 87 -53 31 -21 60 -37 63 -37 4 0 21
-11 39 -25 36 -27 56 -32 56 -13 0 6 3 8 6 5 4 -4 32 11 63 32 136 92 182 121
191 121 6 0 10 5 10 10 0 6 7 10 15 10 8 0 15 5 15 10 0 6 5 10 10 10 6 0 39
20 74 45 36 25 70 45 75 45 6 0 11 5 11 10 0 6 4 10 10 10 11 0 103 62 108 73
2 4 8 7 13 7 8 0 177 108 189 121 3 3 23 16 45 29 22 13 43 28 46 33 3 5 9 8
13 8 7 -1 57 29 66 40 3 3 31 21 63 40 31 18 57 37 57 41 0 5 5 8 10 8 6 0 51
27 101 60 50 33 93 60 95 60 3 0 10 5 17 11 23 20 179 119 188 119 5 0 9 4 9
8 0 5 12 15 28 23 15 8 32 18 37 22 25 21 271 177 278 177 9 0 72 -34 157 -84
67 -40 82 -49 115 -71 16 -11 32 -20 35 -21 16 -2 60 -29 60 -36 0 -4 5 -8 10
-8 6 0 56 -27 110 -60 118 -71 140 -85 214 -128 31 -18 56 -36 56 -40 0 -6
-205 -155 -258 -187 -9 -5 -43 -29 -75 -52 -31 -24 -62 -43 -67 -43 -6 0 -10
-4 -10 -10 0 -5 -7 -10 -15 -10 -8 0 -15 -4 -15 -10 0 -5 -6 -10 -14 -10 -8 0
-16 -4 -18 -8 -1 -4 -56 -45 -120 -89 -178 -124 -182 -127 -190 -138 -5 -7 -8
-7 -8 0 0 6 -5 2 -11 -7 -5 -10 -15 -18 -21 -18 -9 0 -28 -14 -85 -60 -7 -6
-15 -10 -18 -10 -5 0 -115 -77 -142 -100 -7 -5 -16 -10 -22 -10 -5 0 -11 -4
-13 -8 -2 -7 -93 -73 -146 -107 -9 -5 -25 -18 -36 -27 -11 -10 -25 -18 -32
-18 -7 0 -14 -4 -16 -8 -1 -4 -39 -33 -83 -63 -44 -29 -82 -56 -85 -59 -3 -3
-34 -25 -70 -50 -93 -62 -122 -83 -144 -102 -11 -10 -28 -20 -38 -24 -10 -3
-18 -10 -18 -15 0 -5 -5 -9 -11 -9 -6 0 -28 -13 -48 -28 -34 -27 -174 -125
-209 -147 -18 -11 -37 -25 -55 -40 -7 -6 -36 -25 -64 -44 -29 -18 -53 -38 -53
-44 0 -6 -3 -8 -6 -4 -5 5 -62 -31 -84 -53 -3 -3 -48 -34 -100 -70 -52 -35
-96 -68 -98 -72 -2 -4 -8 -8 -13 -8 -5 0 -31 -16 -58 -35 -42 -31 -50 -33 -61
-20 -7 9 -28 23 -46 31 -19 9 -34 20 -34 25 0 5 -5 9 -11 9 -5 0 -37 18 -69
40 -32 22 -64 40 -69 40 -6 0 -11 3 -11 8 0 4 -20 18 -45 32 -25 14 -45 28
-45 31 0 4 -13 12 -30 19 -16 7 -30 16 -30 21 0 5 -5 9 -10 9 -6 0 -58 32
-116 70 -59 39 -110 70 -114 70 -5 0 -10 4 -12 8 -1 4 -38 30 -81 58 -43 27
-89 56 -102 64 -12 8 -58 37 -101 65 -44 27 -85 55 -92 62 -6 6 -21 15 -32 18
-11 3 -20 11 -20 16 0 5 -4 9 -10 9 -5 0 -69 39 -142 87 -73 48 -141 92 -151
98 -62 36 -233 150 -239 159 -5 7 -8 7 -8 1 0 -6 -3 -6 -8 0 -4 6 -32 26 -62
45 -30 19 -57 37 -60 40 -3 4 -12 9 -20 13 -18 8 -34 19 -116 75 -35 23 -67
42 -73 42 -5 0 -11 4 -13 8 -1 4 -62 46 -135 92 -73 47 -170 110 -217 140 -47
30 -144 93 -216 140 -72 47 -138 90 -148 95 -9 6 -32 20 -50 32 l-33 21 28 19
c38 28 96 58 106 55 4 -1 7 3 7 9 0 5 5 7 10 4 6 -3 10 -2 10 3 0 4 17 17 38
28 107 58 178 98 182 103 3 3 25 16 50 29 25 12 59 30 75 40 17 9 82 46 145
81 63 36 117 67 120 70 3 4 14 11 25 17 20 12 39 5 115 -46z"/>
</g>
</svg>
