<svg width="148" height="50" viewBox="0 0 148 50" fill="none" xmlns="http://www.w3.org/2000/svg">
<rect width="148" height="50" fill="white"/>
<path d="M62.874 33.041H72.5566V36H59.168V14.6719H62.874V33.041ZM90.6475 14.6719V28.9248C90.6475 31.1904 89.9199 32.9873 88.4648 34.3154C87.0195 35.6338 85.0908 36.293 82.6787 36.293C80.2373 36.293 78.2988 35.6436 76.8633 34.3447C75.4277 33.0361 74.71 31.2246 74.71 28.9102V14.6719H78.4014V28.9395C78.4014 30.3652 78.7627 31.4541 79.4854 32.2061C80.208 32.958 81.2725 33.334 82.6787 33.334C85.5303 33.334 86.9561 31.8301 86.9561 28.8223V14.6719H90.6475ZM110.892 29.0566C110.677 31.332 109.837 33.1094 108.372 34.3887C106.907 35.6582 104.959 36.293 102.527 36.293C100.828 36.293 99.3291 35.8926 98.0303 35.0918C96.7412 34.2812 95.7451 33.1338 95.042 31.6494C94.3389 30.165 93.9727 28.4414 93.9434 26.4785V24.4863C93.9434 22.4746 94.2998 20.7021 95.0127 19.1689C95.7256 17.6357 96.7461 16.4541 98.0742 15.624C99.4121 14.7939 100.955 14.3789 102.703 14.3789C105.057 14.3789 106.951 15.0186 108.387 16.2979C109.822 17.5771 110.657 19.3838 110.892 21.7178H107.2C107.024 20.1846 106.575 19.0811 105.853 18.4072C105.14 17.7236 104.09 17.3818 102.703 17.3818C101.092 17.3818 99.8516 17.9727 98.9824 19.1543C98.123 20.3262 97.6836 22.0498 97.6641 24.3252V26.2148C97.6641 28.5195 98.0742 30.2773 98.8945 31.4883C99.7246 32.6992 100.936 33.3047 102.527 33.3047C103.982 33.3047 105.076 32.9775 105.809 32.3232C106.541 31.6689 107.005 30.5801 107.2 29.0566H110.892ZM118.128 36H114.437V14.6719H118.128V36ZM122.684 36V14.6719H128.982C130.867 14.6719 132.537 15.0918 133.992 15.9316C135.457 16.7715 136.59 17.9629 137.391 19.5059C138.191 21.0488 138.592 22.8164 138.592 24.8086V25.8779C138.592 27.8994 138.187 29.6768 137.376 31.21C136.575 32.7432 135.428 33.9248 133.934 34.7549C132.449 35.585 130.745 36 128.821 36H122.684ZM126.39 17.6602V33.041H128.807C130.75 33.041 132.239 32.4355 133.274 31.2246C134.319 30.0039 134.852 28.2559 134.871 25.9805V24.7939C134.871 22.4795 134.368 20.7119 133.362 19.4912C132.356 18.2705 130.896 17.6602 128.982 17.6602H126.39Z" fill="#9179EF"/>
<path d="M12 18L6 21.5L29 35.5V28.5L12 18Z" fill="#B2A2F5"/>
<path d="M12 31L6 34.5L29 48.5V42L12 31Z" fill="#B2A2F5"/>
<path d="M29 15L6 27.8205V34.5L29 21.5V15Z" fill="#9179EF"/>
<path d="M29 2L6 14.8205V21.5L29 8.5V2Z" fill="#9179EF"/>
<path d="M29 2V8.5L45 18.5L50.5 15L29 2Z" fill="#B2A2F5"/>
<path d="M29 15V21.5L45 31L50.5 27L29 15Z" fill="#B2A2F5"/>
<path d="M29 28.5L50.5 15V21.5L29 35.5V28.5Z" fill="#9179EF"/>
<path d="M29 42L50.5 27V33.5L29 48.5V42Z" fill="#9179EF"/>
</svg>
